<?xml version="1.0" encoding="utf-8"?>
<!-- Generator: Adobe Illustrator 18.1.1, SVG Export Plug-In . SVG Version: 6.00 Build 0)  -->
<svg version="1.1" id="Layer_2" xmlns="http://www.w3.org/2000/svg" xmlns:xlink="http://www.w3.org/1999/xlink" x="0px" y="0px"
	 viewBox="0 0 640 640" enable-background="new 0 0 640 640" xml:space="preserve">
	<style>
		
		@-webkit-keyframes flap {
		  0%   { transform:rotateY(0deg); }
		  30% { transform:rotateY(10deg);}

		  100% { transform:rotateY(70deg);  }
		}

		* {
		    animation-timing-function:ease-in-out;
		}

		.butterfly1 .right-wing {
			animation: flap .8s infinite;
			transform-origin:left;
			animation-direction:alternate;
		}
		.butterfly1 .left-wing{
			animation: flap .8s infinite;
			transform-origin:right;
			animation-direction:alternate;
		}

		.butterfly2 .right-wing {
			animation: flap .8s infinite;
			transform-origin:left;
			animation-direction:alternate;
			animation-delay:.1s;
		}

		.butterfly2 .left-wing {
			animation: flap .8s infinite;
			transform-origin:right;
			animation-direction:alternate;
			animation-delay:.1s;
		}

		.butterfly3 .right-wing {
			animation: flap .8s infinite;
			transform-origin:left;
			animation-direction:alternate;
			animation-delay:.2s;
		}

		.butterfly3 .left-wing {
			animation: flap .8s infinite;
			transform-origin:right;
			animation-direction:alternate;
			animation-delay:.2s;
		}

		.butterfly1{
			transform:scale(.5)translateY(40px);
		}

		.butterfly2{
			transform:scale(1)translateY(150px);
		}

		.butterfly3{
			transform:scale(.3)translateX(1000px)translateY(400px);
		}


	</style>
	<g class="butterfly1">
		<g class="body">
			<path d="M322.7,289.8c0,0,6.2-9.2,8.5-11.8s24.1-25.4,25.8-27.5s12.5-15.5,18.6-26.5s6.4-11.4,7.5-13c1.6-2.4,2.8-0.8,2.9,2
				c0.1,3.5-2.6,10.2-5.1,13.2s-14.1,15.5-14.8,16.2s-14.9,15.8-16.3,17s-13.4,13.5-13.4,13.5s-7.5,8.3-9.2,11.1s-3.1,4-3.9,6.3
				S322.7,289.8,322.7,289.8"/>

			<path d="M315.6,289.8c0,0-6.1-9.2-8.5-11.8c-2.4-2.6-24.8-25.7-26.4-27.8c-1.6-2.1-11.5-14.1-17.6-25.1c-6.1-11-5.7-11.3-6.3-13.1
				c-1.6-4.2-4.8-2.8-4.1,0c0.7,2.8,3,10.8,5.7,14.2c2.4,3,13.3,15.5,13.9,16.3s11.7,12.7,13.1,13.9c1.4,1.2,16.5,16.6,16.5,16.6
				s7.5,8.3,9.1,11.1s3,4,3.9,6.3C315.9,292.5,315.6,289.8,315.6,289.8"/>

			<ellipse stroke="#000000" stroke-miterlimit="10" cx="319.7" cy="373.1" rx="14.3" ry="88"/>
		</g>

		<g class="right-wing">

			<path fill="#0071BC" d="M332,349c0,0-0.3,32.2,15.2,62.5s48.1,49.7,52.1,51.1c10.1,3.5,16.3,4.9,21.2,4.4
				c14.8-1.5,22.9-6.1,26.1-8.8c5.8-4.8,19.9-17.1,23.2-22.9c1.5-2.7,7.6-12.5,10.4-24.4c4-17.1,2.2-23.4,2.1-26s-25.8-40.6-45-46.2
				c-8.9-2.6-25.7-8.1-42-9.2c-18.8-1.2-36.9,2.3-41.2,3.4C346.2,335.1,332,349,332,349z"/>

			<path fill="#29ABE2" d="M332.5,311.1c0.3-1.2,0.8-2.4,1.4-3.4c5.7-9.6,36.3-59.5,75-94.3c43-38.7,109.8-76.9,148.7-62
				c12,4.6,9.4,29.2,9.1,30.9c-1.3,7.7-6.9,19-7.8,20.8c-0.9,1.8-22.7,47.1-25.4,51.7c-2.8,4.6-28.2,61-35.2,69.9
				c-2.1,2.6-10.4,10.8-22.6,13.6c-8.6,2-54,3.2-58.3,3.1c-4.3-0.1-42.8-1-45.2-0.7c-9.2,1.3-31.1,12.6-40.2,8.3
				C324.2,345.3,330.6,318.4,332.5,311.1z"/>
		</g>

		<g class="left-wing">
			<path fill="#0071BC" d="M306.4,351c0,0,0.3,32.2-15.2,62.5s-48.1,49.7-52.1,51.1c-10.1,3.5-16.3,4.9-21.2,4.4
				c-14.8-1.5-22.9-6.1-26.1-8.8c-5.8-4.8-19.9-17.1-23.2-22.9c-1.5-2.7-7.6-12.5-10.4-24.4c-4-17.1-2.2-23.4-2.1-26s25.8-40.6,45-46.2
				c8.9-2.6,25.7-8.1,42-9.2c18.8-1.2,36.9,2.3,41.2,3.4C292.2,337.1,306.4,351,306.4,351z"/>

			<path fill="#29ABE2" d="M305.9,313.1c-0.3-1.2-0.8-2.4-1.4-3.4c-5.7-9.6-36.3-59.5-75-94.3c-43-38.7-109.8-76.9-148.7-62
				c-12,4.6-9.4,29.2-9.1,30.9c1.3,7.7,6.9,19,7.8,20.8c0.9,1.8,22.7,47.1,25.4,51.7c2.8,4.6,28.2,61,35.2,69.9
				c2.1,2.6,10.4,10.8,22.6,13.6c8.6,2,54,3.2,58.3,3.1c4.3-0.1,42.8-1,45.2-0.7c9.2,1.3,31.1,12.6,40.2,8.3
				C314.2,347.3,307.8,320.4,305.9,313.1z"/>
		</g>
	</g>
	<g class="butterfly2">
		<g class="body">
			<path d="M322.7,289.8c0,0,6.2-9.2,8.5-11.8s24.1-25.4,25.8-27.5s12.5-15.5,18.6-26.5s6.4-11.4,7.5-13c1.6-2.4,2.8-0.8,2.9,2
				c0.1,3.5-2.6,10.2-5.1,13.2s-14.1,15.5-14.8,16.2s-14.9,15.8-16.3,17s-13.4,13.5-13.4,13.5s-7.5,8.3-9.2,11.1s-3.1,4-3.9,6.3
				S322.7,289.8,322.7,289.8"/>

			<path d="M315.6,289.8c0,0-6.1-9.2-8.5-11.8c-2.4-2.6-24.8-25.7-26.4-27.8c-1.6-2.1-11.5-14.1-17.6-25.1c-6.1-11-5.7-11.3-6.3-13.1
				c-1.6-4.2-4.8-2.8-4.1,0c0.7,2.8,3,10.8,5.7,14.2c2.4,3,13.3,15.5,13.9,16.3s11.7,12.7,13.1,13.9c1.4,1.2,16.5,16.6,16.5,16.6
				s7.5,8.3,9.1,11.1s3,4,3.9,6.3C315.9,292.5,315.6,289.8,315.6,289.8"/>

			<ellipse stroke="#000000" stroke-miterlimit="10" cx="319.7" cy="373.1" rx="14.3" ry="88"/>
		</g>

		<g class="right-wing">

			<path fill="#0071BC" d="M332,349c0,0-0.3,32.2,15.2,62.5s48.1,49.7,52.1,51.1c10.1,3.5,16.3,4.9,21.2,4.4
				c14.8-1.5,22.9-6.1,26.1-8.8c5.8-4.8,19.9-17.1,23.2-22.9c1.5-2.7,7.6-12.5,10.4-24.4c4-17.1,2.2-23.4,2.1-26s-25.8-40.6-45-46.2
				c-8.9-2.6-25.7-8.1-42-9.2c-18.8-1.2-36.9,2.3-41.2,3.4C346.2,335.1,332,349,332,349z"/>

			<path fill="#29ABE2" d="M332.5,311.1c0.3-1.2,0.8-2.4,1.4-3.4c5.7-9.6,36.3-59.5,75-94.3c43-38.7,109.8-76.9,148.7-62
				c12,4.6,9.4,29.2,9.1,30.9c-1.3,7.7-6.9,19-7.8,20.8c-0.9,1.8-22.7,47.1-25.4,51.7c-2.8,4.6-28.2,61-35.2,69.9
				c-2.1,2.6-10.4,10.8-22.6,13.6c-8.6,2-54,3.2-58.3,3.1c-4.3-0.1-42.8-1-45.2-0.7c-9.2,1.3-31.1,12.6-40.2,8.3
				C324.2,345.3,330.6,318.4,332.5,311.1z"/>
		</g>

		<g class="left-wing">
			<path fill="#0071BC" d="M306.4,351c0,0,0.3,32.2-15.2,62.5s-48.1,49.7-52.1,51.1c-10.1,3.5-16.3,4.9-21.2,4.4
				c-14.8-1.5-22.9-6.1-26.1-8.8c-5.8-4.8-19.9-17.1-23.2-22.9c-1.5-2.7-7.6-12.5-10.4-24.4c-4-17.1-2.2-23.4-2.1-26s25.8-40.6,45-46.2
				c8.9-2.6,25.7-8.1,42-9.2c18.8-1.2,36.9,2.3,41.2,3.4C292.2,337.1,306.4,351,306.4,351z"/>

			<path fill="#29ABE2" d="M305.9,313.1c-0.3-1.2-0.8-2.4-1.4-3.4c-5.7-9.6-36.3-59.5-75-94.3c-43-38.7-109.8-76.9-148.7-62
				c-12,4.6-9.4,29.2-9.1,30.9c1.3,7.7,6.9,19,7.8,20.8c0.9,1.8,22.7,47.1,25.4,51.7c2.8,4.6,28.2,61,35.2,69.9
				c2.1,2.6,10.4,10.8,22.6,13.6c8.6,2,54,3.2,58.3,3.1c4.3-0.1,42.8-1,45.2-0.7c9.2,1.3,31.1,12.6,40.2,8.3
				C314.2,347.3,307.8,320.4,305.9,313.1z"/>
		</g>
	</g>

	<g class="butterfly3">
		<g class="body">
			<path d="M322.7,289.8c0,0,6.2-9.2,8.5-11.8s24.1-25.4,25.8-27.5s12.5-15.5,18.6-26.5s6.4-11.4,7.5-13c1.6-2.4,2.8-0.8,2.9,2
				c0.1,3.5-2.6,10.2-5.1,13.2s-14.1,15.5-14.8,16.2s-14.9,15.8-16.3,17s-13.4,13.5-13.4,13.5s-7.5,8.3-9.2,11.1s-3.1,4-3.9,6.3
				S322.7,289.8,322.7,289.8"/>

			<path d="M315.6,289.8c0,0-6.1-9.2-8.5-11.8c-2.4-2.6-24.8-25.7-26.4-27.8c-1.6-2.1-11.5-14.1-17.6-25.1c-6.1-11-5.7-11.3-6.3-13.1
				c-1.6-4.2-4.8-2.8-4.1,0c0.7,2.8,3,10.8,5.7,14.2c2.4,3,13.3,15.5,13.9,16.3s11.7,12.7,13.1,13.9c1.4,1.2,16.5,16.6,16.5,16.6
				s7.5,8.3,9.1,11.1s3,4,3.9,6.3C315.9,292.5,315.6,289.8,315.6,289.8"/>

			<ellipse stroke="#000000" stroke-miterlimit="10" cx="319.7" cy="373.1" rx="14.3" ry="88"/>
		</g>

		<g class="right-wing">

			<path fill="#0071BC" d="M332,349c0,0-0.3,32.2,15.2,62.5s48.1,49.7,52.1,51.1c10.1,3.5,16.3,4.9,21.2,4.4
				c14.8-1.5,22.9-6.1,26.1-8.8c5.8-4.8,19.9-17.1,23.2-22.9c1.5-2.7,7.6-12.5,10.4-24.4c4-17.1,2.2-23.4,2.1-26s-25.8-40.6-45-46.2
				c-8.9-2.6-25.7-8.1-42-9.2c-18.8-1.2-36.9,2.3-41.2,3.4C346.2,335.1,332,349,332,349z"/>

			<path fill="#29ABE2" d="M332.5,311.1c0.3-1.2,0.8-2.4,1.4-3.4c5.7-9.6,36.3-59.5,75-94.3c43-38.7,109.8-76.9,148.7-62
				c12,4.6,9.4,29.2,9.1,30.9c-1.3,7.7-6.9,19-7.8,20.8c-0.9,1.8-22.7,47.1-25.4,51.7c-2.8,4.6-28.2,61-35.2,69.9
				c-2.1,2.6-10.4,10.8-22.6,13.6c-8.6,2-54,3.2-58.3,3.1c-4.3-0.1-42.8-1-45.2-0.7c-9.2,1.3-31.1,12.6-40.2,8.3
				C324.2,345.3,330.6,318.4,332.5,311.1z"/>
		</g>

		<g class="left-wing">
			<path fill="#0071BC" d="M306.4,351c0,0,0.3,32.2-15.2,62.5s-48.1,49.7-52.1,51.1c-10.1,3.5-16.3,4.9-21.2,4.4
				c-14.8-1.5-22.9-6.1-26.1-8.8c-5.8-4.8-19.9-17.1-23.2-22.9c-1.5-2.7-7.6-12.5-10.4-24.4c-4-17.1-2.2-23.4-2.1-26s25.8-40.6,45-46.2
				c8.9-2.6,25.7-8.1,42-9.2c18.8-1.2,36.9,2.3,41.2,3.4C292.2,337.1,306.4,351,306.4,351z"/>

			<path fill="#29ABE2" d="M305.9,313.1c-0.3-1.2-0.8-2.4-1.4-3.4c-5.7-9.6-36.3-59.5-75-94.3c-43-38.7-109.8-76.9-148.7-62
				c-12,4.6-9.4,29.2-9.1,30.9c1.3,7.7,6.9,19,7.8,20.8c0.9,1.8,22.7,47.1,25.4,51.7c2.8,4.6,28.2,61,35.2,69.9
				c2.1,2.6,10.4,10.8,22.6,13.6c8.6,2,54,3.2,58.3,3.1c4.3-0.1,42.8-1,45.2-0.7c9.2,1.3,31.1,12.6,40.2,8.3
				C314.2,347.3,307.8,320.4,305.9,313.1z"/>
		</g>
	</g>

</svg>
