<?xml version="1.0" encoding="utf-8"?>
	<!-- Generator: Adobe Illustrator 18.1.1, SVG Export Plug-In . SVG Version: 6.00 Build 0)  -->
	<svg version="1.1" xmlns="http://www.w3.org/2000/svg" xmlns:xlink="http://www.w3.org/1999/xlink" x="0px" y="0px"
		 viewBox="0 0 640 640" enable-background="new 0 0 640 640" xml:space="preserve">

	<style>
	@keyframes bounce {
	    20%   {transform:translateY(0px);}
	    30% {transform:translateY(-95px);}
	    50% {transform:translateY(-105px);}
	    70% {transform:translateY(-95px);}
	    80% {transform:translateY(0px);}
	}

	@keyframes shadow {
			0% {transform:scale(1);}
		    20%  {transform:scale(1.2);}
			30%  {transform:scale(.4);}
		    50% {transform:scale(.5);}
		    70%  {transform:scale(.4);}
		    80% {transform:scale(1.2);}
		    100% {transform:scale(1);}
	}

	@keyframes squash {
		00%  {transform:scaleY(1);}
	    20%  {transform:scaleY(.6);}
		30% {transform:scaleY(1.1);}
	    60% {transform:scaleY(1.2);}
	    70% {transform:scaleY(1.1);}
	    80% {transform:scaleY(.6);}
	    100% {transform:scaleY(1);}
	}

		#icon-1 g {
			transform-origin:bottom;
			animation: bounce 1s ease-in-out infinite;
		}

		#icon-1 g path {
			transform-origin:bottom;
			animation: squash 1s ease-in-out infinite;
		}

		#icon-1 ellipse{
			transform-origin:center;
			animation: shadow 1s ease-in-out infinite;

		}

		#icon-2 g {
			transform-origin:bottom;
			animation: bounce 1s ease-in-out infinite;
			animation-delay: .1s;
		}

		#icon-2 g path {
			transform-origin:bottom;
			animation: squash 1s ease-in-out infinite;
			animation-delay: .1s;
		}

		#icon-2	 ellipse{
			transform-origin:center;
			animation: shadow 1s ease-in-out infinite;
			animation-delay: .1s;

		}

		#icon-3 g {
			transform-origin:bottom;
			animation: bounce 1s ease-in-out infinite;
			animation-delay: .2s;
		}

		#icon-3 g path {
			transform-origin:bottom;
			animation: squash 1s ease-in-out infinite;
			animation-delay: .2s;
		}

		#icon-3	 ellipse{
			transform-origin:center;
			animation: shadow 1s ease-in-out infinite;
			animation-delay: .2s;

		}

		#nav-all {
		transform:scale(.89)translateY(140px);
		}
	</style>

	<g id="nav-all">

		<g id="icon-1">

			<ellipse fill="#E6E6E6" stroke="#FFFFFF" stroke-miterlimit="10" cx="484.4" cy="528.9" rx="96" ry="12.8"/>
			<g>
			<path fill="#398d99" d="M484.1,189.9c-49.2,0-96.5,45.8-95.8,98.3c0.6,42.7,24.1,78.2,43.6,121.7c26.9,60,52.2,122.4,52.2,122.4
				s24.3-56.4,51.9-119.7c17.6-40.4,42.4-80.8,44.3-120.1C583.2,235.5,536.9,189.9,484.1,189.9z M483.8,339.6
				c-29.2,0-52.9-23.7-52.9-52.9c0-29.2,23.7-52.9,52.9-52.9c29.2,0,52.9,23.7,52.9,52.9C536.7,315.9,513,339.6,483.8,339.6z"/>
			</g>
		</g>
		<g id="icon-2">
			<ellipse fill="#E6E6E6" stroke="#FFFFFF" stroke-miterlimit="10" cx="157.4" cy="533.9" rx="96" ry="12.8"/>
			<g>
			<path fill="#398d99" d="M157.1,194.9c-49.2,0-96.5,45.8-95.8,98.3c0.6,42.7,24.1,78.2,43.6,121.7c26.9,60,52.2,122.4,52.2,122.4
				s24.3-56.4,51.9-119.7c17.6-40.4,42.4-80.8,44.3-120.1C256.2,240.5,209.9,194.9,157.1,194.9z M156.8,344.6
				c-29.2,0-52.9-23.7-52.9-52.9c0-29.2,23.7-52.9,52.9-52.9s52.9,23.7,52.9,52.9C209.7,320.9,186,344.6,156.8,344.6z"/>
			</g>
		</g>
		<g id="icon-3">
			<ellipse fill="#E6E6E6" stroke="#FFFFFF" stroke-miterlimit="10" cx="318.9" cy="565.9" rx="140.5" ry="18.8"/>
			<g>
				<path fill="#57bec5" d="M318.5,70c-72,0-141.3,66.9-140.1,143.8c0.9,62.4,35.2,114.4,63.8,178.1c39.4,87.8,76.3,179.1,76.3,179.1
					s35.6-82.6,76-175.2c25.8-59.1,62-118.2,64.8-175.8C463.4,136.7,395.7,70,318.5,70z M318.1,289c-42.7,0-77.3-34.6-77.3-77.3
					s34.6-77.3,77.3-77.3s77.3,34.6,77.3,77.3S360.8,289,318.1,289z"/>
			</g>
		</g>
	</g>

	</svg>
